<svg width="16" height="12" viewBox="0 0 16 12" fill="none" xmlns="http://www.w3.org/2000/svg">
<path fill-rule="evenodd" clip-rule="evenodd" d="M12.818 0.562728C12.9094 0.471435 13.0333 0.420157 13.1625 0.420157C13.2917 0.420157 13.4156 0.471435 13.507 0.562728L13.5089 0.564028L13.5109 0.565978L13.5167 0.572478C13.5449 0.600269 13.5718 0.629333 13.5973 0.659578C13.6487 0.717428 13.7195 0.801278 13.8027 0.909828C13.9698 1.12628 14.1888 1.44478 14.4066 1.85883C14.8421 2.68693 15.275 3.90178 15.275 5.45723C15.275 7.01268 14.8421 8.22753 14.4066 9.05628C14.2331 9.38946 14.0311 9.70699 13.8027 10.0053C13.7129 10.1221 13.6175 10.2344 13.5167 10.342L13.5102 10.3485L13.5089 10.3504L13.5076 10.3511L13.1625 10.0072L13.507 10.3517C13.4151 10.4406 13.292 10.4898 13.1642 10.4887C13.0363 10.4877 12.914 10.4365 12.8236 10.3461C12.7332 10.2558 12.6818 10.1335 12.6807 10.0057C12.6795 9.87788 12.7286 9.75471 12.8173 9.66273L12.8264 9.65363L12.8674 9.60813C12.906 9.56566 12.9601 9.49979 13.0299 9.41053C13.1677 9.23113 13.3549 8.96008 13.5434 8.60193C13.9204 7.88693 14.3 6.82678 14.3 5.45723C14.3 4.08768 13.9204 3.02753 13.5434 2.31253C13.3954 2.02896 13.2236 1.75845 13.0299 1.50393C12.9654 1.42017 12.8975 1.33907 12.8264 1.26083L12.8173 1.25173C12.7261 1.16032 12.6748 1.03642 12.6748 0.907228C12.6748 0.77804 12.7267 0.654134 12.818 0.562728ZM7.66155 0.189628C8.4175 -0.308922 9.425 0.233828 9.425 1.13928V10.4252C9.425 11.3313 8.4175 11.8734 7.66155 11.3748L3.76155 8.80408C3.73517 8.78648 3.70421 8.77699 3.6725 8.77678H1.7875C1.31343 8.77678 0.858768 8.58845 0.523547 8.25323C0.188325 7.91801 0 7.46335 0 6.98928V4.57518C0 4.34044 0.046235 4.108 0.136065 3.89113C0.225896 3.67426 0.357562 3.47721 0.523547 3.31122C0.689531 3.14524 0.886584 3.01357 1.10345 2.92374C1.32032 2.83391 1.55276 2.78768 1.7875 2.78768H3.6725C3.70437 2.78778 3.73556 2.77851 3.7622 2.76103L7.66155 0.189628Z" fill="#D2E9F4"/>
</svg>
