<svg width="12" height="13" viewBox="0 0 12 13" fill="none" xmlns="http://www.w3.org/2000/svg">
<path d="M2.33997 6.10805C2.33997 4.33615 2.33997 3.4502 2.88792 2.89965C3.43652 2.3491 4.31857 2.3491 6.08396 2.3491H7.95597C9.72071 2.3491 10.6034 2.3491 11.1514 2.89965C11.7 3.4502 11.7 4.33615 11.7 6.10805V9.24105C11.7 11.0129 11.7 11.8989 11.1514 12.4494C10.6034 13 9.72071 13 7.95597 13H6.08396C4.31857 13 3.43652 13 2.88792 12.4494C2.33932 11.8989 2.33997 11.0129 2.33997 9.24105V6.10805Z" fill="#D2E9F4"/>
<path opacity="0.5" d="M0.7618 0.7618C-7.7486e-08 1.52295 0 2.74885 0 5.2V6.5C0 8.95115 -7.7486e-08 10.177 0.7618 10.9382C1.16285 11.3399 1.69325 11.5297 2.4648 11.6194C2.34 11.0734 2.34 10.322 2.34 9.2404V6.10805C2.34 4.33615 2.34 3.4502 2.88795 2.89965C3.43655 2.3491 4.3186 2.3491 6.084 2.3491H7.956C9.0298 2.3491 9.776 2.3491 10.3207 2.4726C10.231 1.69715 10.0412 1.1648 9.6382 0.7618C8.87705 -7.7486e-08 7.65115 0 5.2 0C2.74885 0 1.52295 -7.7486e-08 0.7618 0.7618Z" fill="#D2E9F4"/>
</svg>
